# xmcd
# 
# Track frame offsets:
#     150
#     16726
#     32398
#     47340
#     63250
#     77913
#     93526
#     104822
#     120739
#     138239
#     152909
#     168461
#     182903
#     198360
#     213005
#     228938
#     244519
#     261783
#     277015
#     291656
# 
# Disc length: 4086
# 
# Revision: 1
# Processed by: cddbd v1.5.2PL0 Copyright (c) Steve Scherf et al.
# Submitted via: fre:ac v1.0.31
# 
DISCID=180ff414
DTITLE=Various Artist - Presenting The Great Saxophones Player
DYEAR=2002
DGENRE=Jazz
TTITLE0=Coleman Hawkins - I Ain't Got Nobody
TTITLE1=Coleman Hawkins - Stardust
TTITLE2=Coleman Hawkins - Body And Soul
TTITLE3=Coleman Hawkins - When Day Is Done
TTITLE4=Lester Young - Shoe Shine Swing
TTITLE5=Lester Young - Oh, Lady Be Good
TTITLE6=Lester Young - Me, Myself And I
TTITLE7=Lester Young - You Can Depend On Me
TTITLE8=Johnny Hodges - Something To Tap Your Foot To
TTITLE9=Johnny Hodges - Day Dream
TTITLE10=Johnny Hodges - Junior Hop
TTITLE11=Johnny Hodges - That's The Blues, Old Man
TTITLE12=Don Bays - Royal Garden Blues
TTITLE13=Don Bays - Sugar Blues
TTITLE14=Ben Webster - Honeysuckle Rose
TTITLE15=Ben Webster - You're My Thrill
TTITLE16=Charlie Parker - Star Eyes
TTITLE17=Charlie Parker - Out Of Nowhere
TTITLE18=Charlie Parker - Ornithology
TTITLE19=Charlie Parker - A Night In Tunisia
EXTD=This is the soundtrack of the saxaphone coming of age in the hugely talented hands of the jazz sax greats. In a unique collection of original recordings from six great players, you'll hear pedigree jazz at it's very best.
EXTT0=
EXTT1=
EXTT2=
EXTT3=
EXTT4=
EXTT5=
EXTT6=
EXTT7=
EXTT8=
EXTT9=
EXTT10=
EXTT11=
EXTT12=
EXTT13=
EXTT14=
EXTT15=
EXTT16=
EXTT17=
EXTT18=
EXTT19=
PLAYORDER=
